# Blender v2.78 (sub 0) OBJ File: '8.blend'
# www.blender.org
mtllib Digital_Clock_01.mtl
o Digital_clock_Cube
v -3.183946 0.924358 2.092429
v -3.183946 3.106402 0.796964
v -3.183946 0.750371 1.799370
v -3.183946 2.932414 0.503905
v -2.843130 0.924358 2.092429
v -2.843131 3.106402 0.796964
v -2.843130 0.750371 1.799370
v -2.843131 2.932414 0.503905
v -1.853633 0.924358 2.092429
v -1.853634 3.106402 0.796964
v -1.853633 0.750371 1.799370
v -1.853634 2.932414 0.503905
v -1.512817 0.924358 2.092428
v -1.512818 3.106402 0.796964
v -1.512817 0.750371 1.799369
v -1.512818 2.932414 0.503905
v 0.155132 0.924358 2.092427
v 0.155131 3.106402 0.796963
v 0.155131 0.750371 1.799369
v 0.155131 2.932414 0.503904
v 0.495947 0.924358 2.092427
v 0.495947 3.106402 0.796963
v 0.495947 0.750371 1.799368
v 0.495947 2.932414 0.503904
v 1.485445 0.924358 2.092427
v 1.485444 3.106402 0.796962
v 1.485445 0.750371 1.799368
v 1.485444 2.932414 0.503903
v 1.826260 0.924358 2.092427
v 1.826260 3.106402 0.796962
v 1.826260 0.750371 1.799368
v 1.826260 2.932414 0.503903
v 2.555406 0.924358 2.092427
v 2.555405 3.106402 0.796962
v 2.555405 0.750371 1.799368
v 2.555405 2.932414 0.503903
v 2.896222 0.924358 2.092426
v 2.896221 3.106402 0.796962
v 2.896221 0.750371 1.799368
v 2.896221 2.932414 0.503902
v 3.885718 0.924358 2.092426
v 3.885718 3.106402 0.796961
v 3.885718 0.750371 1.799367
v 3.885718 2.932414 0.503902
v 4.226534 0.924358 2.092426
v 4.226534 3.106402 0.796961
v 4.226534 0.750371 1.799367
v 4.226533 2.932414 0.503902
v 0.155131 1.288032 1.876517
v 0.155131 2.742728 1.012874
v 0.155131 2.568740 0.719815
v 0.155131 1.114045 1.583458
v 0.495947 2.568740 0.719814
v 0.495947 1.114045 1.583458
v 0.495947 2.742728 1.012874
v 0.495947 1.288032 1.876517
v 1.485445 1.288032 1.876516
v 1.485444 2.742728 1.012873
v 1.485444 2.568740 0.719814
v 1.485444 1.114045 1.583458
v 1.826260 2.568740 0.719814
v 1.826260 1.114045 1.583457
v 1.826260 2.742728 1.012873
v 1.826260 1.288032 1.876516
v 2.555406 1.288032 1.876516
v 2.555405 2.742728 1.012873
v 2.555405 2.568740 0.719813
v 2.555405 1.114045 1.583457
v 2.896221 2.568740 0.719813
v 2.896221 1.114045 1.583457
v 2.896221 2.742728 1.012873
v 2.896222 1.288032 1.876516
v 3.885718 1.288032 1.876516
v 3.885718 2.742728 1.012872
v 3.885718 2.568740 0.719813
v 3.885718 1.114045 1.583456
v 4.226533 2.568740 0.719813
v 4.226534 1.114045 1.583456
v 4.226534 2.742728 1.012872
v 4.226534 1.288032 1.876515
v -0.792293 1.288032 1.876517
v -0.792294 1.651706 1.660607
v -0.792294 2.379054 1.228785
v -0.792294 2.742728 1.012874
v -0.792294 2.568740 0.719815
v -0.792294 2.205066 0.935726
v -0.792294 1.477719 1.367547
v -0.792294 1.114045 1.583458
v -0.451478 2.568740 0.719815
v -0.451478 2.205066 0.935726
v -0.451478 1.477719 1.367547
v -0.451478 1.114045 1.583458
v -0.451478 2.742728 1.012874
v -0.451478 2.379054 1.228785
v -0.451478 1.651706 1.660607
v -0.451478 1.288032 1.876517
v -4.976939 0.160287 2.167392
v -4.976939 0.488816 2.355537
v -4.976940 3.478169 0.601594
v -4.976940 3.640699 0.330962
v 5.007339 0.488816 2.355533
v 5.007339 0.160287 2.167388
v 5.007339 3.640699 0.330958
v 5.007339 3.478169 0.601590
v 4.584345 0.667598 2.250636
v -4.553944 0.667598 2.250639
v -4.553945 3.299386 0.706491
v 4.584344 3.299386 0.706487
v 4.584345 0.583792 2.107800
v -4.553945 0.583792 2.107803
v -4.553945 3.215580 0.563655
v 4.584344 3.215580 0.563651
v -4.976943 0.507801 -7.997746
v -4.976943 0.160287 -7.699699
v -4.976943 3.640699 -7.699699
v -4.976943 3.342652 -7.997746
v 5.007335 0.160287 -7.699703
v 5.007335 0.507801 -7.997750
v 5.007335 3.342652 -7.997750
v 5.007335 3.640699 -7.699703
v 3.984938 3.226914 -0.607807
v -3.954540 3.226914 -0.607804
v -3.954540 3.226914 -2.080617
v 3.984938 3.226914 -2.080620
v 2.886399 3.226914 -0.607807
v -2.856000 3.226914 -0.607804
v -2.856001 3.226914 -2.080617
v 2.886398 3.226914 -2.080620
v -4.156466 3.226914 -1.005852
v -4.156466 3.226914 -1.682569
v 4.186862 3.226914 -1.005855
v 4.186862 3.226914 -1.682572
v 2.886399 3.226914 -0.992354
v 2.886399 3.226914 -1.696072
v -2.856000 3.226914 -0.992352
v -2.856001 3.226914 -1.696070
v 2.886399 3.795868 -1.696072
v 2.886399 3.795868 -0.992354
v -2.856001 3.795868 -1.696070
v -2.856000 3.795868 -0.992352
v -3.772288 3.451376 -3.156951
v -4.049884 3.451376 -3.030355
v -4.164867 3.451376 -2.724726
v -4.049884 3.451376 -2.419096
v -3.772288 3.451376 -2.292500
v -3.494692 3.451376 -2.419096
v -3.379709 3.451376 -2.724726
v -3.494693 3.451376 -3.030355
v -3.772288 3.789686 -2.724726
v -2.366120 3.451376 -2.724726
v -2.481103 3.451376 -2.419097
v -2.758698 3.451376 -2.292500
v -3.036294 3.451376 -2.419096
v -3.151278 3.451376 -2.724726
v -3.036294 3.451376 -3.030355
v -2.758698 3.451376 -3.156951
v -2.481103 3.451376 -3.030356
v -2.758698 3.789686 -2.724726
v 2.783965 3.451376 -3.156954
v 2.506370 3.451376 -3.030358
v 2.391386 3.451376 -2.724728
v 2.506370 3.451376 -2.419098
v 2.783966 3.451376 -2.292503
v 3.061561 3.451376 -2.419099
v 3.176545 3.451376 -2.724729
v 3.061561 3.451376 -3.030358
v 2.783965 3.789686 -2.724729
v 4.190134 3.451376 -2.724729
v 4.075150 3.451376 -2.419099
v 3.797555 3.451376 -2.292503
v 3.519959 3.451376 -2.419099
v 3.404975 3.451376 -2.724729
v 3.519959 3.451376 -3.030358
v 3.797554 3.451376 -3.156954
v 4.075150 3.451376 -3.030358
v 3.797554 3.789686 -2.724729
v -3.772288 3.789687 -3.094609
v -3.772288 3.734765 -3.156951
v -4.049884 3.734765 -3.030355
v -4.009845 3.789687 -2.986273
v -4.164867 3.734765 -2.724726
v -4.108243 3.789687 -2.724726
v -4.049884 3.734765 -2.419096
v -4.009845 3.789687 -2.463179
v -3.772288 3.734765 -2.292500
v -3.772288 3.789687 -2.354842
v -3.494692 3.734765 -2.419096
v -3.534731 3.789687 -2.463179
v -3.379709 3.734765 -2.724726
v -3.436332 3.789687 -2.724726
v -3.494693 3.734765 -3.030355
v -3.534731 3.789687 -2.986273
v -2.758698 3.789687 -3.094609
v -2.758698 3.734765 -3.156951
v -2.996255 3.789687 -2.986273
v -3.036294 3.734765 -3.030355
v -3.094654 3.789687 -2.724726
v -3.151278 3.734765 -2.724726
v -2.996255 3.789687 -2.463179
v -3.036294 3.734765 -2.419096
v -2.758698 3.789687 -2.354842
v -2.758698 3.734765 -2.292500
v -2.521142 3.789687 -2.463179
v -2.481103 3.734765 -2.419097
v -2.422743 3.789687 -2.724726
v -2.366120 3.734765 -2.724726
v -2.481103 3.734765 -3.030356
v -2.521142 3.789687 -2.986274
v 2.783965 3.789687 -3.094612
v 2.783965 3.734765 -3.156954
v 2.506370 3.734765 -3.030358
v 2.546409 3.789687 -2.986275
v 2.391386 3.734765 -2.724728
v 2.448010 3.789687 -2.724728
v 2.506370 3.734765 -2.419098
v 2.546409 3.789687 -2.463181
v 2.783966 3.734765 -2.292503
v 2.783966 3.789687 -2.354845
v 3.061561 3.734765 -2.419099
v 3.021522 3.789687 -2.463181
v 3.176545 3.734765 -2.724729
v 3.119922 3.789687 -2.724729
v 3.061561 3.734765 -3.030358
v 3.021522 3.789687 -2.986275
v 3.797554 3.789687 -3.094612
v 3.797554 3.734765 -3.156954
v 3.559998 3.789687 -2.986276
v 3.519959 3.734765 -3.030358
v 3.461599 3.789687 -2.724729
v 3.404975 3.734765 -2.724729
v 3.559998 3.789687 -2.463181
v 3.519959 3.734765 -2.419099
v 3.797555 3.789687 -2.354845
v 3.797555 3.734765 -2.292503
v 4.035110 3.789687 -2.463182
v 4.075150 3.734765 -2.419099
v 4.133511 3.789687 -2.724729
v 4.190134 3.734765 -2.724729
v 4.075150 3.734765 -3.030358
v 4.035110 3.789687 -2.986276
v -3.914867 3.795868 -0.680869
v -3.954540 3.722803 -0.607804
v 3.945266 3.795868 -0.680873
v 3.984938 3.722803 -0.607807
v -3.914868 3.795868 -2.007551
v -3.954540 3.722803 -2.080617
v 3.945265 3.795868 -2.007555
v 3.984938 3.722803 -2.080620
v 2.886399 3.795868 -0.680872
v 2.886399 3.722803 -0.607807
v -2.856000 3.722803 -0.607804
v -2.856000 3.795868 -0.680870
v -2.856001 3.795868 -2.007552
v -2.856001 3.722803 -2.080617
v 2.886398 3.722803 -2.080620
v 2.886398 3.795868 -2.007554
v -4.079294 3.795868 -1.004997
v -4.156466 3.722803 -1.005852
v -4.156466 3.722803 -1.682569
v -4.079294 3.795868 -1.683423
v 4.186862 3.722803 -1.005855
v 4.109692 3.795868 -1.005001
v 4.109692 3.795868 -1.683426
v 4.186862 3.722803 -1.682572
v 4.235348 0.695101 -7.997750
v 4.761209 0.695101 -7.997750
v 4.761209 1.092947 -7.997750
v 4.235348 1.092947 -7.997750
v 4.235348 0.695101 -7.768340
v 4.761209 0.695101 -7.768340
v 4.761209 1.092947 -7.768340
v 4.235348 1.092947 -7.768340
v -4.430458 0.160287 1.627325
v 4.460858 0.160287 1.627321
v 4.460855 0.160287 -7.159636
v -4.430462 0.160287 -7.159633
v -4.976941 0.160287 -2.766154
v 5.007338 0.160287 -2.766157
v -4.976941 0.498309 -2.821104
v 5.007338 0.498309 -2.821108
v -4.430459 0.160287 -2.766154
v 4.460857 0.160287 -2.766157
v 0.015200 0.160287 1.627324
v 0.015197 0.160287 -7.159634
v 0.015199 0.160287 -2.766156
v 3.148835 0.160287 0.354220
v 4.031035 0.160287 0.354220
v 4.031035 0.160287 1.179023
v 3.148836 0.160287 1.179023
v 3.148833 0.160287 -6.711336
v 4.031033 0.160287 -6.711337
v 4.031033 0.160287 -5.886534
v 3.148833 0.160287 -5.886533
v -4.000638 0.160287 -6.711332
v -3.118437 0.160287 -6.711333
v -3.118438 0.160287 -5.886531
v -4.000637 0.160287 -5.886531
v -4.000636 0.160287 0.354223
v -3.118435 0.160287 0.354223
v -3.118435 0.160287 1.179026
v -4.000635 0.160287 1.179026
v 3.901375 0.010002 0.475444
v 3.278496 0.010002 0.475444
v 3.278496 0.010002 1.057798
v 3.901375 0.010002 1.057798
v 3.901372 0.010002 -6.590112
v 3.278493 0.010002 -6.590111
v 3.278493 0.010002 -6.007757
v 3.901373 0.010002 -6.007759
v -3.248098 0.010002 -6.590109
v -3.870977 0.010002 -6.590109
v -3.870977 0.010002 -6.007755
v -3.248098 0.010002 -6.007755
v -3.248096 0.010002 0.475447
v -3.870975 0.010002 0.475447
v -3.870975 0.010002 1.057801
v -3.248096 0.010002 1.057801
vn 0.0000 0.5061 0.8625
vn 0.0000 1.0000 0.0000
vn -1.0000 0.0000 0.0000
vn 0.0000 0.8573 0.5148
vn 1.0000 0.0000 -0.0000
vn 0.0000 -0.8625 0.5061
vn -0.0000 0.8625 -0.5061
vn -0.0000 0.7071 -0.7071
vn -0.0000 0.0000 -1.0000
vn 0.0000 -1.0000 -0.0000
vn 0.0000 -0.4970 0.8678
vn -0.0000 -0.6510 -0.7591
vn 0.0000 0.0000 1.0000
vn 0.8918 0.0000 0.4524
vn -0.8918 0.0000 0.4524
vn 0.8918 0.0000 -0.4524
vn -0.8918 0.0000 -0.4524
vn -0.4149 0.0000 -0.9099
vn 0.9360 0.0000 -0.3521
vn 0.4149 0.0000 0.9099
vn -0.9360 0.0000 0.3521
vn 0.4149 0.0000 -0.9099
vn 0.9360 0.0000 0.3521
vn -0.4149 0.0000 0.9099
vn -0.9360 0.0000 -0.3521
vn -0.2886 0.7184 -0.6329
vn -0.6735 0.6944 -0.2534
vn -0.6735 0.6944 0.2534
vn -0.2886 0.7184 0.6329
vn 0.2886 0.7184 0.6329
vn 0.6735 0.6944 0.2534
vn 0.6735 0.6944 -0.2534
vn 0.2886 0.7184 -0.6329
vn 0.0000 0.7071 0.7071
vn -0.6509 0.6836 -0.3302
vn 0.6509 0.6836 -0.3302
vn -0.6509 0.6836 0.3302
vn -0.6875 0.7262 0.0000
vn 0.6509 0.6836 0.3302
vn 0.6875 0.7262 0.0000
vn 0.0000 -0.6278 0.7783
vn 0.7571 -0.6532 -0.0000
vn -0.0000 -0.6278 -0.7783
vn -0.7571 -0.6532 0.0000
vn 0.7572 -0.6532 -0.0000
vn -0.0000 -0.5105 -0.8599
vn 0.0000 0.5105 0.8599
vn 0.0000 -0.8599 0.5105
vn -0.0000 0.8599 -0.5105
usemtl 78909C
s off
f 99//1 98//1 106//1 107//1
f 120//2 115//2 100//2 103//2
f 105//3 108//3 112//3 109//3
f 103//4 100//4 99//4 104//4
f 104//1 99//1 107//1 108//1
f 101//1 104//1 108//1 105//1
f 98//1 101//1 105//1 106//1
f 107//5 106//5 110//5 111//5
f 108//6 107//6 111//6 112//6
f 106//7 105//7 109//7 110//7
f 115//8 120//8 119//8 116//8
f 113//3 279//3 98//3 99//3 100//3 115//3 116//3
f 101//5 280//5 118//5 119//5 120//5 103//5 104//5
f 113//9 116//9 268//9 265//9
f 119//9 118//9 266//9 267//9
f 118//9 113//9 265//9 266//9
f 116//9 119//9 267//9 268//9
usemtl 455A64
f 278//10 102//10 274//10 282//10
f 278//5 280//5 101//5 102//5
f 97//11 102//11 101//11 98//11
f 277//3 279//3 113//3 114//3
f 117//12 114//12 113//12 118//12
f 242//13 122//13 126//13 251//13
f 135//10 126//10 122//10 129//10
f 244//14 121//14 131//14 261//14
f 262//2 138//2 249//2 243//2
f 248//9 124//9 128//9 255//9
f 247//2 256//2 137//2 263//2
f 251//13 126//13 125//13 250//13
f 256//2 253//2 139//2 137//2
f 258//15 129//15 122//15 242//15
f 138//2 140//2 252//2 249//2
f 131//10 121//10 125//10 133//10
f 133//10 125//10 126//10 135//10
f 253//2 245//2 260//2 139//2
f 255//9 128//9 127//9 254//9
f 259//3 130//3 129//3 258//3
f 137//2 139//2 140//2 138//2
f 264//16 132//16 124//16 248//16
f 261//5 131//5 132//5 264//5
f 128//10 134//10 136//10 127//10
f 134//10 133//10 135//10 136//10
f 124//10 132//10 134//10 128//10
f 132//10 131//10 133//10 134//10
f 250//13 125//13 121//13 244//13
f 254//9 127//9 123//9 246//9
f 139//2 260//2 257//2 140//2
f 127//10 136//10 130//10 123//10
f 136//10 135//10 129//10 130//10
f 246//17 123//17 130//17 259//17
f 263//2 137//2 138//2 262//2
f 186//2 188//2 149//2
f 182//2 184//2 149//2
f 193//2 195//2 158//2
f 188//2 190//2 149//2
f 184//2 186//2 149//2
f 192//2 177//2 149//2
f 141//18 142//18 179//18 178//18
f 190//2 192//2 149//2
f 147//19 148//19 191//19 189//19
f 145//20 146//20 187//20 185//20
f 143//21 144//21 183//21 181//21
f 148//22 141//22 178//22 191//22
f 180//2 182//2 149//2
f 146//23 147//23 189//23 187//23
f 144//24 145//24 185//24 183//24
f 142//25 143//25 181//25 179//25
f 201//2 203//2 158//2
f 197//2 199//2 158//2
f 209//2 212//2 167//2
f 203//2 205//2 158//2
f 199//2 201//2 158//2
f 208//2 193//2 158//2
f 156//18 155//18 196//18 194//18
f 205//2 208//2 158//2
f 150//19 157//19 207//19 206//19
f 152//20 151//20 204//20 202//20
f 154//21 153//21 200//21 198//21
f 157//22 156//22 194//22 207//22
f 195//2 197//2 158//2
f 151//23 150//23 206//23 204//23
f 153//24 152//24 202//24 200//24
f 155//25 154//25 198//25 196//25
f 218//2 220//2 167//2
f 214//2 216//2 167//2
f 225//2 227//2 176//2
f 220//2 222//2 167//2
f 216//2 218//2 167//2
f 224//2 209//2 167//2
f 159//18 160//18 211//18 210//18
f 222//2 224//2 167//2
f 165//19 166//19 223//19 221//19
f 163//20 164//20 219//20 217//20
f 161//21 162//21 215//21 213//21
f 166//22 159//22 210//22 223//22
f 212//2 214//2 167//2
f 164//23 165//23 221//23 219//23
f 162//24 163//24 217//24 215//24
f 160//25 161//25 213//25 211//25
f 233//2 235//2 176//2
f 229//2 231//2 176//2
f 235//2 237//2 176//2
f 231//2 233//2 176//2
f 240//2 225//2 176//2
f 174//18 173//18 228//18 226//18
f 237//2 240//2 176//2
f 168//19 175//19 239//19 238//19
f 170//20 169//20 236//20 234//20
f 172//21 171//21 232//21 230//21
f 175//22 174//22 226//22 239//22
f 227//2 229//2 176//2
f 169//23 168//23 238//23 236//23
f 171//24 170//24 234//24 232//24
f 173//25 172//25 230//25 228//25
f 180//26 177//26 178//26 179//26
f 182//27 180//27 179//27 181//27
f 184//28 182//28 181//28 183//28
f 186//29 184//29 183//29 185//29
f 188//30 186//30 185//30 187//30
f 190//31 188//31 187//31 189//31
f 192//32 190//32 189//32 191//32
f 177//33 192//33 191//33 178//33
f 208//32 205//32 206//32 207//32
f 205//31 203//31 204//31 206//31
f 203//30 201//30 202//30 204//30
f 201//29 199//29 200//29 202//29
f 199//28 197//28 198//28 200//28
f 197//27 195//27 196//27 198//27
f 195//26 193//26 194//26 196//26
f 193//33 208//33 207//33 194//33
f 212//26 209//26 210//26 211//26
f 214//27 212//27 211//27 213//27
f 216//28 214//28 213//28 215//28
f 218//29 216//29 215//29 217//29
f 220//30 218//30 217//30 219//30
f 222//31 220//31 219//31 221//31
f 224//32 222//32 221//32 223//32
f 209//33 224//33 223//33 210//33
f 240//32 237//32 238//32 239//32
f 237//31 235//31 236//31 238//31
f 235//30 233//30 234//30 236//30
f 233//29 231//29 232//29 234//29
f 231//28 229//28 230//28 232//28
f 229//27 227//27 228//27 230//27
f 227//26 225//26 226//26 228//26
f 225//33 240//33 239//33 226//33
f 177//2 180//2 149//2
f 252//34 241//34 242//34 251//34
f 256//8 247//8 248//8 255//8
f 260//35 245//35 246//35 259//35
f 264//36 248//36 247//36 263//36
f 243//34 249//34 250//34 244//34
f 249//34 252//34 251//34 250//34
f 245//8 253//8 254//8 246//8
f 253//8 256//8 255//8 254//8
f 241//37 257//37 258//37 242//37
f 257//38 260//38 259//38 258//38
f 244//39 261//39 262//39 243//39
f 261//40 264//40 263//40 262//40
f 140//2 257//2 241//2 252//2
f 277//10 114//10 276//10 281//10
f 114//10 117//10 284//10
f 97//10 277//10 281//10 273//10
f 97//3 98//3 279//3 277//3
f 117//5 118//5 280//5 278//5
f 117//10 278//10 282//10 275//10
f 283//10 274//10 102//10
f 283//10 97//10 273//10
f 284//10 117//10 275//10
f 284//10 276//10 114//10
f 285//10 282//10 287//10 286//10
f 282//10 274//10 288//10 287//10
f 274//10 283//10 289//10 288//10
f 283//10 285//10 286//10 289//10
f 284//10 275//10 291//10 290//10
f 275//10 282//10 292//10 291//10
f 282//10 285//10 293//10 292//10
f 285//10 284//10 290//10 293//10
f 276//10 284//10 295//10 294//10
f 284//10 285//10 296//10 295//10
f 285//10 281//10 297//10 296//10
f 281//10 276//10 294//10 297//10
f 281//10 285//10 299//10 298//10
f 285//10 283//10 300//10 299//10
f 283//10 273//10 301//10 300//10
f 273//10 281//10 298//10 301//10
f 102//10 97//10 283//10
usemtl 1A1A1A
f 109//1 112//1 111//1 110//1
f 265//5 268//5 272//5 269//5
f 269//9 272//9 271//9 270//9
f 267//3 266//3 270//3 271//3
f 266//2 265//2 269//2 270//2
f 300//41 301//41 316//41 317//41
f 268//10 267//10 271//10 272//10
f 296//41 297//41 312//41 313//41
f 299//42 300//42 317//42 314//42
f 292//41 293//41 308//41 309//41
f 303//10 302//10 305//10 304//10
f 307//10 306//10 309//10 308//10
f 311//10 310//10 313//10 312//10
f 315//10 314//10 317//10 316//10
f 286//43 287//43 302//43 303//43
f 290//43 291//43 306//43 307//43
f 289//44 286//44 303//44 304//44
f 294//43 295//43 310//43 311//43
f 293//44 290//44 307//44 308//44
f 298//43 299//43 314//43 315//43
f 287//42 288//42 305//42 302//42
f 297//44 294//44 311//44 312//44
f 291//45 292//45 309//45 306//45
f 301//44 298//44 315//44 316//44
f 288//41 289//41 304//41 305//41
f 295//42 296//42 313//42 310//42
usemtl F44336
f 1//3 2//3 4//3 3//3
f 3//46 4//46 8//46 7//46
f 7//5 8//5 6//5 5//5
f 5//47 6//47 2//47 1//47
f 3//48 7//48 5//48 1//48
f 8//49 4//49 2//49 6//49
f 9//3 10//3 12//3 11//3
f 11//46 12//46 16//46 15//46
f 15//5 16//5 14//5 13//5
f 13//47 14//47 10//47 9//47
f 11//48 15//48 13//48 9//48
f 16//49 12//49 10//49 14//49
f 50//3 18//3 20//3 51//3
f 51//46 20//46 24//46 53//46
f 53//48 59//48 58//48 55//48
f 55//47 22//47 18//47 50//47
f 19//48 23//48 21//48 17//48
f 24//49 20//49 18//49 22//49
f 24//46 28//46 59//46 53//46
f 59//46 28//46 32//46 61//46
f 61//5 32//5 30//5 63//5
f 63//47 30//47 26//47 58//47
f 27//48 31//48 29//48 25//48
f 32//49 28//49 26//49 30//49
f 66//3 34//3 36//3 67//3
f 67//46 36//46 40//46 69//46
f 69//48 75//48 74//48 71//48
f 71//47 38//47 34//47 66//47
f 35//48 39//48 37//48 33//48
f 40//49 36//49 34//49 38//49
f 40//46 44//46 75//46 69//46
f 75//46 44//46 48//46 77//46
f 77//5 48//5 46//5 79//5
f 79//47 46//47 42//47 74//47
f 43//48 47//48 45//48 41//48
f 48//49 44//49 42//49 46//49
f 21//47 56//47 49//47 17//47
f 56//47 55//47 50//47 49//47
f 21//47 25//47 57//47 56//47
f 54//5 53//5 55//5 56//5
f 19//46 52//46 54//46 23//46
f 52//46 51//46 53//46 54//46
f 17//3 49//3 52//3 19//3
f 49//3 50//3 51//3 52//3
f 29//47 64//47 57//47 25//47
f 64//47 63//47 58//47 57//47
f 31//5 62//5 64//5 29//5
f 62//5 61//5 63//5 64//5
f 27//46 60//46 62//46 31//46
f 60//46 59//46 61//46 62//46
f 23//48 27//48 25//48 21//48
f 57//3 58//3 59//3 60//3
f 37//47 72//47 65//47 33//47
f 72//47 71//47 66//47 65//47
f 37//47 41//47 73//47 72//47
f 70//5 69//5 71//5 72//5
f 35//46 68//46 70//46 39//46
f 68//46 67//46 69//46 70//46
f 33//3 65//3 68//3 35//3
f 65//3 66//3 67//3 68//3
f 45//47 80//47 73//47 41//47
f 80//47 79//47 74//47 73//47
f 47//5 78//5 80//5 45//5
f 78//5 77//5 79//5 80//5
f 43//46 76//46 78//46 47//46
f 76//46 75//46 77//46 78//46
f 39//48 43//48 41//48 37//48
f 73//3 74//3 75//3 76//3
f 55//47 58//47 26//47 22//47
f 22//49 26//49 28//49 24//49
f 56//49 57//49 60//49 54//49
f 54//46 60//46 27//46 23//46
f 71//47 74//47 42//47 38//47
f 38//49 42//49 44//49 40//49
f 72//49 73//49 76//49 70//49
f 70//46 76//46 43//46 39//46
f 96//47 95//47 82//47 81//47
f 94//47 93//47 84//47 83//47
f 92//5 91//5 95//5 96//5
f 90//5 89//5 93//5 94//5
f 88//46 87//46 91//46 92//46
f 86//46 85//46 89//46 90//46
f 81//3 82//3 87//3 88//3
f 83//3 84//3 85//3 86//3
f 96//48 81//48 88//48 92//48
f 95//49 91//49 87//49 82//49
f 94//48 83//48 86//48 90//48
f 93//49 89//49 85//49 84//49
