# Blender v2.78 (sub 0) OBJ File: '3.blend'
# www.blender.org
mtllib Apple_01.mtl
o Cube.026_Cube
v -2.975967 7.835938 3.506737
v -2.975967 7.835938 -2.906402
v 3.437171 7.835938 3.506737
v 3.437171 7.835938 -2.906402
v 0.818416 3.034270 -3.883757
v -2.207963 8.228196 -2.138258
v 2.669168 8.228196 -2.138258
v 2.669168 8.228196 2.738873
v -2.207963 8.228196 2.738873
v -1.379315 8.226840 -1.310174
v 1.840519 8.226840 -1.310174
v 1.840519 8.226840 1.909659
v -1.379315 8.226840 1.909659
v -3.321068 5.979980 3.851837
v -0.591615 7.965559 -0.522474
v 1.052818 7.965559 -0.522474
v 1.048887 7.969866 1.119953
v -0.587684 7.969866 1.119953
v -3.321068 5.979980 -3.251502
v 3.782272 5.979980 -3.251502
v 3.752768 5.981133 3.909792
v 0.232643 1.145748 0.299065
v 0.025507 9.889111 0.210481
v 0.435696 9.889111 0.210481
v 0.441480 9.945931 0.632274
v 4.434107 3.033026 -0.296878
v 3.277490 3.496888 -2.746717
v 4.434107 3.033026 0.897218
v 1.057216 7.961945 -4.151633
v -0.596012 7.961945 -4.151633
v -0.760126 7.966072 4.752044
v 1.221330 7.966072 4.752046
v -4.242577 7.979326 -0.628077
v -4.242577 7.979326 1.228411
v 4.703779 7.912316 1.052676
v 4.703779 7.912316 -0.452341
v -1.970056 8.493215 0.723858
v -1.970056 8.493215 -0.124373
v -3.143554 8.549703 -0.498236
v -3.143554 8.549703 1.098852
v -0.522370 8.508039 -3.058020
v 0.983574 8.508039 -3.058020
v 3.604757 8.399453 -0.364278
v 3.604757 8.399453 0.964893
v 1.037962 8.455839 3.669779
v -0.576759 8.455839 3.669779
v -0.826113 7.965559 -0.000511
v -0.825478 7.966099 0.600057
v 0.814735 8.458694 -1.890884
v -0.353531 8.458694 -1.890884
v 2.431260 8.368729 0.773507
v 2.431260 8.368729 -0.174023
v 0.698157 8.415258 2.478027
v -0.236954 8.415258 2.478027
v -0.064750 7.965559 -0.755218
v 0.525954 7.965559 -0.755218
v 1.287316 7.965559 -0.000511
v 1.286681 7.966099 0.600057
v -0.069568 7.966343 1.351892
v 0.530771 7.966343 1.351892
v 0.064135 7.724393 0.468899
v 0.397068 7.724393 0.468899
v 0.392503 7.719280 0.132968
v 0.068701 7.719280 0.132968
v -0.603971 5.924711 5.242006
v 1.065175 5.924711 5.242008
v 1.211792 5.924862 -4.641729
v -0.750588 5.924862 -4.641729
v 5.227317 5.923503 1.089992
v 5.194890 5.924771 -0.547611
v -4.735197 5.924840 -0.307661
v -4.735197 5.924840 0.907996
v 0.019724 9.945931 0.632274
v 0.066614 8.899283 0.725528
v 0.394590 8.899283 0.725528
v 0.390092 8.855096 0.397523
v 0.071112 8.855096 0.397523
v 0.085004 8.195424 0.371703
v 0.376199 8.195424 0.371703
v 0.380305 8.159777 0.671731
v 0.080898 8.159777 0.671731
v 0.811270 3.033005 4.483600
v 3.277490 3.496888 3.347056
v -3.973318 3.034087 -0.234659
v -0.357208 3.034270 -3.883757
v -2.816284 3.496888 -2.746717
v -0.350063 3.033004 4.483600
v -3.973318 3.034088 0.834999
v -2.816283 3.496888 3.347056
v 0.699521 8.329091 1.130966
v 0.940280 8.329091 0.943417
v 3.245995 9.236179 4.461749
v 3.546723 9.236179 4.227484
v 2.213637 9.434815 3.952142
v 0.690121 8.612921 1.645134
v 1.406291 9.360537 3.366549
v 0.823099 9.065928 2.512447
v 1.441118 8.612921 1.060114
v 3.305211 9.434815 3.101813
v 2.249528 9.065928 1.401269
v 2.934967 9.360538 2.175721
v 0.219078 7.422578 0.423094
v 0.480471 7.502316 0.321401
v 3.639062 9.082815 4.656176
v 0.819901 8.328590 1.037192
v 3.396358 9.214314 4.344616
v 2.759425 9.268592 3.526977
v 2.170629 9.194315 2.771135
v 1.536313 8.899706 1.956858
v 1.065620 8.599236 1.352624
v 0.344697 7.502316 0.427168
v 0.671606 8.477465 1.095131
v 0.912364 8.477465 0.907582
v 3.218080 9.384552 4.425913
v 3.518808 9.384552 4.191648
v 2.185722 9.583189 3.916305
v 0.662206 8.761293 1.609299
v 1.378375 9.508910 3.330713
v 0.795183 9.214300 2.476612
v 1.413202 8.761293 1.024278
v 3.277296 9.583190 3.065978
v 2.221613 9.214300 1.365434
v 2.907051 9.508910 2.139885
v 0.191162 7.570952 0.387258
v 0.452555 7.650689 0.285565
v 3.611147 9.231189 4.620341
v 0.791985 8.476963 1.001357
v 3.368444 9.362688 4.308781
v 2.731509 9.416966 3.491142
v 2.142713 9.342688 2.735300
v 1.508398 9.048079 1.921023
v 1.037704 8.747609 1.316789
v 0.316781 7.650689 0.391332
v -2.352861 1.317231 2.883630
v -1.469958 0.650617 2.026815
v -1.985200 0.766362 2.523610
v -1.467655 0.650507 -1.430524
v -2.352862 1.317231 -2.283296
v -1.984526 0.766331 -1.924460
v 1.936431 0.649724 2.023396
v 2.814065 1.317231 2.883630
v 2.447947 0.766101 2.522609
v 2.814065 1.317231 -2.283296
v 1.939362 0.649086 -1.421599
v 2.448806 0.765914 -1.921846
v 0.695666 0.562599 -3.198882
v 0.573671 0.178345 -2.036454
v 0.620081 0.114822 -2.727150
v -0.112467 0.178345 -2.036454
v -0.234462 0.562599 -3.198882
v -0.158877 0.114822 -2.727150
v -0.214676 0.560535 3.798408
v -0.116647 0.179680 2.632092
v -0.154306 0.114609 3.325873
v 0.577851 0.179680 2.632092
v 0.675879 0.560535 3.798408
v 0.615510 0.114609 3.325873
v -3.284958 0.562301 -0.164997
v -2.094239 0.164274 -0.047376
v -2.804290 0.110518 -0.090388
v -2.094239 0.164274 0.647556
v -3.284958 0.562302 0.765331
v -2.804290 0.110520 0.690678
v 2.558478 0.162843 -0.047448
v 3.745480 0.560570 -0.147670
v 3.266183 0.109593 -0.085335
v 3.745480 0.560570 0.748005
v 2.558478 0.162843 0.647628
v 3.266183 0.109593 0.685624
vn -0.3250 0.9003 0.2895
vn -0.2682 0.9036 -0.3342
vn 0.3288 0.9172 -0.2250
vn 0.2576 0.9170 0.3047
vn -0.4505 -0.2682 0.8515
vn -0.8722 0.1897 0.4509
vn 0.2682 0.9036 -0.3342
vn -0.8722 0.1897 -0.4509
vn -0.8663 -0.2507 0.4321
vn -0.4030 -0.9047 0.1380
vn 0.8521 -0.2646 0.4516
vn -0.2576 0.9170 0.3047
vn 0.8614 0.2388 -0.4484
vn 0.4586 0.2423 -0.8550
vn 0.1143 0.9831 0.1428
vn 0.1348 -0.9083 0.3959
vn -0.0556 0.9954 -0.0780
vn 0.1814 0.9663 -0.1827
vn -0.1048 0.9912 -0.0812
vn 0.1142 0.9831 -0.1429
vn 0.4568 0.2165 0.8628
vn -0.4586 0.2423 -0.8550
vn 0.3289 0.9172 0.2250
vn -0.3250 0.9003 -0.2895
vn 0.3652 0.9304 0.0314
vn -0.1350 0.9865 0.0925
vn -0.0504 0.9451 -0.3230
vn -0.0407 0.9377 0.3450
vn -0.0557 0.9954 0.0779
vn 0.1350 0.9865 0.0925
vn 0.1048 0.9912 -0.0812
vn 0.3620 0.9316 -0.0324
vn 0.1802 0.9667 0.1817
vn -0.8517 -0.2629 -0.4534
vn -0.1814 0.9663 -0.1827
vn 0.0407 0.9377 0.3450
vn 0.0504 0.9451 -0.3230
vn -0.1802 0.9667 0.1817
vn -0.2953 0.9532 0.0654
vn -0.2920 0.9541 -0.0665
vn 0.8471 -0.2701 -0.4576
vn -0.0000 -0.2537 0.9673
vn 0.4505 -0.2682 0.8515
vn 0.4525 -0.2671 -0.8508
vn 0.0000 -0.2536 -0.9673
vn 0.4541 -0.2750 -0.8474
vn -0.8663 -0.2507 -0.4321
vn 0.1366 -0.9079 -0.3962
vn 0.4023 -0.9052 0.1371
vn -0.4030 -0.9047 -0.1386
vn -0.4635 0.2071 0.8616
vn 0.8523 -0.2641 -0.4515
vn -0.9670 -0.2549 0.0000
vn 0.8612 0.2394 0.4484
vn -0.4525 -0.2671 -0.8508
vn 0.9656 -0.2596 -0.0112
vn 0.4380 -0.2701 0.8574
vn 0.9633 -0.2683 0.0000
vn -0.1389 -0.9075 0.3964
vn -0.9633 -0.2683 0.0000
vn 0.0000 -0.9239 -0.3826
vn 0.0000 -0.9239 0.3827
vn -0.0000 0.9111 0.4123
vn 0.4052 0.9142 0.0000
vn 0.0000 -0.2670 -0.9637
vn 0.3886 -0.9214 0.0000
vn 0.0000 0.9994 -0.0340
vn 0.0481 0.9988 0.0000
vn 0.0000 0.8947 -0.4467
vn -0.4606 0.8876 0.0000
vn -0.3321 0.9432 -0.0005
vn 0.0000 0.9173 0.3983
vn 0.0000 0.9991 0.0422
vn -0.0262 0.9997 0.0000
vn 0.0000 0.9644 -0.2643
vn 0.0000 0.9636 0.2672
vn -0.2638 0.9646 -0.0047
vn 0.2638 0.9646 -0.0047
vn 0.4186 0.9082 -0.0005
vn 0.0000 0.9289 -0.3703
vn -0.0000 0.2334 0.9724
vn 0.0000 0.2339 -0.9723
vn 0.9689 0.2474 -0.0099
vn -0.9724 0.2332 0.0000
vn -0.3893 -0.9211 0.0000
vn -0.4541 -0.2750 -0.8474
vn -0.4439 -0.2639 0.8563
vn -0.8517 -0.2629 0.4534
vn 0.8471 -0.2701 0.4576
vn 0.4022 -0.9054 -0.1361
vn 0.6853 -0.7283 0.0000
vn -0.0750 -0.9972 0.0000
vn 0.0000 -0.9956 -0.0934
vn 0.0000 -0.7273 0.6863
vn 0.0000 -0.9958 0.0916
vn 0.0000 -0.7253 -0.6885
vn 0.0755 -0.9971 0.0000
vn -0.6849 -0.7287 0.0000
vn -0.2929 -0.9512 0.0973
vn -0.4832 -0.6767 -0.5554
vn 0.4832 -0.6766 -0.5556
vn 0.2925 -0.9517 0.0939
vn 0.2929 -0.9515 -0.0939
vn 0.4814 -0.6742 0.5601
vn -0.4815 -0.6744 0.5598
vn -0.2931 -0.9513 -0.0956
vn 0.0841 -0.9502 0.3001
vn -0.5516 -0.6776 0.4864
vn -0.5518 -0.6775 -0.4864
vn 0.0832 -0.9503 -0.2999
vn -0.0834 -0.9500 -0.3008
vn 0.5569 -0.6743 -0.4850
vn 0.5566 -0.6745 0.4851
vn -0.0833 -0.9501 0.3008
vn -0.1385 -0.9075 -0.3965
vn 0.0000 -0.2671 0.9637
vn -0.2063 -0.9757 0.0736
vn 0.2178 -0.9752 -0.0381
vn 0.2962 -0.9492 0.1060
vn 0.3459 -0.9037 0.2523
vn 0.3617 -0.8252 0.4340
vn 0.4496 -0.6832 0.5754
vn -0.1076 -0.9432 -0.3142
vn 0.4340 -0.6847 0.5855
vn 0.3323 -0.8252 0.4569
vn 0.1600 -0.9037 0.3971
vn 0.0303 -0.9492 0.3131
vn -0.0902 -0.9752 0.2019
vn 0.1218 -0.9757 -0.1820
vn -0.2784 -0.9432 -0.1813
vn 0.2063 0.9757 -0.0736
vn -0.2178 0.9752 0.0381
vn -0.2962 0.9492 -0.1060
vn -0.3459 0.9037 -0.2523
vn -0.3617 0.8252 -0.4340
vn -0.4496 0.6832 -0.5754
vn 0.1076 0.9432 0.3142
vn -0.4340 0.6847 -0.5855
vn -0.3323 0.8252 -0.4569
vn -0.1600 0.9037 -0.3971
vn -0.0303 0.9492 -0.3131
vn 0.0902 0.9752 -0.2019
vn -0.1218 0.9757 0.1820
vn 0.2784 0.9432 0.1813
vn -0.3925 0.1455 0.9082
vn 0.9731 0.1386 -0.1843
vn 0.7520 -0.0176 -0.6589
vn 0.9766 0.1455 -0.1583
vn -0.4168 0.1386 0.8984
vn -0.5876 -0.2927 -0.7543
vn -0.9677 -0.1298 0.2162
vn -0.5901 0.0829 0.8031
vn -0.8182 -0.0151 0.5747
vn 0.4464 -0.1298 -0.8854
vn 0.8004 0.0058 -0.5994
vn 0.9230 0.0829 -0.3757
vn -0.9832 -0.1670 0.0742
vn 0.1603 -0.2031 -0.9659
vn 0.3125 -0.1670 -0.9351
vn -0.8229 -0.0176 0.5680
vn 0.0000 0.0887 0.9961
vn 0.0000 -0.1780 -0.9840
vn 0.9989 -0.0454 -0.0076
vn 0.0000 0.9910 -0.1335
vn 0.9991 0.0419 -0.0116
vn 0.9997 -0.0194 -0.0134
vn 0.0000 -0.0726 0.9974
vn -0.9997 -0.0194 -0.0134
vn -0.9989 -0.0454 -0.0076
vn 0.0000 -0.4223 0.9065
vn 0.0000 0.4482 -0.8939
vn -0.9991 0.0419 -0.0116
vn 0.0000 0.0391 -0.9992
usemtl F44336
s off
f 34//1 1//1 9//1 40//1
f 30//2 2//2 6//2 41//2
f 36//3 4//3 7//3 43//3
f 32//4 3//4 8//4 45//4
f 87//5 89//5 134//5 152//5
f 14//6 1//6 34//6 72//6
f 4//7 29//7 42//7 7//7
f 71//8 33//8 2//8 19//8
f 89//9 14//9 72//9 88//9
f 168//10 140//10 22//10
f 28//11 69//11 21//11 83//11
f 1//12 31//12 46//12 9//12
f 20//13 4//13 36//13 70//13
f 67//14 29//14 4//14 20//14
f 40//15 9//15 13//15 37//15
f 147//16 144//16 22//16
f 43//17 7//17 11//17 52//17
f 61//18 48//18 18//18 59//18
f 9//19 46//19 54//19 13//19
f 6//20 39//20 38//20 10//20
f 21//21 3//21 32//21 66//21
f 19//22 2//22 30//22 68//22
f 3//23 35//23 44//23 8//23
f 2//24 33//24 39//24 6//24
f 10//25 38//25 47//25 15//25
f 41//26 6//26 10//26 50//26
f 53//27 12//27 17//27 60//27
f 11//28 49//28 56//28 16//28
f 8//29 44//29 51//29 12//29
f 7//30 42//30 49//30 11//30
f 45//31 8//31 12//31 53//31
f 37//32 13//32 18//32 48//32
f 55//33 15//33 47//33 64//33
f 158//34 84//34 86//34 138//34
f 58//35 62//35 60//35 17//35
f 50//36 10//36 15//36 55//36
f 13//37 54//37 59//37 18//37
f 16//38 56//38 63//38 57//38
f 52//39 11//39 16//39 57//39
f 12//40 51//40 58//40 17//40
f 27//41 26//41 165//41 143//41
f 65//42 87//42 82//42 66//42
f 83//43 82//43 156//43 141//43
f 146//44 5//44 27//44 143//44
f 67//45 5//45 85//45 68//45
f 5//46 67//46 20//46 27//46
f 84//47 71//47 19//47 86//47
f 140//48 155//48 22//48
f 135//49 161//49 22//49
f 144//50 164//50 22//50
f 65//51 31//51 1//51 14//51
f 20//52 70//52 26//52 27//52
f 71//53 84//53 88//53 72//53
f 69//54 35//54 3//54 21//54
f 138//55 86//55 85//55 150//55
f 69//56 28//56 26//56 70//56
f 21//57 66//57 82//57 83//57
f 28//58 167//58 165//58 26//58
f 137//59 149//59 22//59
f 84//60 158//60 162//60 88//60
f 22//61 155//61 153//61
f 147//62 22//62 149//62
f 46//63 31//63 32//63 45//63
f 36//64 43//64 44//64 35//64
f 5//65 146//65 150//65 85//65
f 159//66 22//66 161//66
f 54//67 46//67 45//67 53//67
f 38//68 39//68 40//68 37//68
f 42//69 29//69 30//69 41//69
f 34//70 40//70 39//70 33//70
f 52//71 57//71 58//71 51//71
f 56//72 49//72 50//72 55//72
f 41//73 50//73 49//73 42//73
f 51//74 44//74 43//74 52//74
f 61//75 59//75 60//75 62//75
f 55//76 64//76 63//76 56//76
f 62//77 58//77 57//77 63//77
f 48//78 61//78 64//78 47//78
f 37//79 48//79 47//79 38//79
f 59//80 54//80 53//80 60//80
f 31//81 65//81 66//81 32//81
f 29//82 67//82 68//82 30//82
f 35//83 69//83 70//83 36//83
f 33//84 71//84 72//84 34//84
f 22//85 164//85 168//85
f 86//86 19//86 68//86 85//86
f 65//87 14//87 89//87 87//87
f 134//88 89//88 88//88 162//88
f 167//89 28//89 83//89 141//89
f 159//90 137//90 22//90
f 165//91 167//91 169//91 166//91
f 166//92 169//92 168//92 164//92
f 153//93 155//93 157//93 154//93
f 154//94 157//94 156//94 152//94
f 147//95 149//95 151//95 148//95
f 148//96 151//96 150//96 146//96
f 159//97 161//97 163//97 160//97
f 160//98 163//98 162//98 158//98
f 149//99 137//99 139//99 151//99
f 151//100 139//100 138//100 150//100
f 146//101 143//101 145//101 148//101
f 148//102 145//102 144//102 147//102
f 155//103 140//103 142//103 157//103
f 157//104 142//104 141//104 156//104
f 152//105 134//105 136//105 154//105
f 154//106 136//106 135//106 153//106
f 161//107 135//107 136//107 163//107
f 163//108 136//108 134//108 162//108
f 158//109 138//109 139//109 160//109
f 160//110 139//110 137//110 159//110
f 164//111 144//111 145//111 166//111
f 166//112 145//112 143//112 165//112
f 167//113 141//113 142//113 169//113
f 169//114 142//114 140//114 168//114
f 153//115 135//115 22//115
f 87//116 152//116 156//116 82//116
usemtl 4CAF50
f 107//117 106//117 92//117 94//117
f 107//118 108//118 101//118 99//118
f 108//119 109//119 100//119 101//119
f 109//120 110//120 98//120 100//120
f 105//121 91//121 98//121 110//121
f 105//122 111//122 103//122 91//122
f 93//123 104//123 106//123
f 90//124 102//124 111//124 105//124
f 90//125 105//125 110//125 95//125
f 97//126 95//126 110//126 109//126
f 96//127 97//127 109//127 108//127
f 94//128 96//128 108//128 107//128
f 99//129 93//129 106//129 107//129
f 104//130 92//130 106//130
f 129//131 116//131 114//131 128//131
f 129//132 121//132 123//132 130//132
f 130//133 123//133 122//133 131//133
f 131//134 122//134 120//134 132//134
f 127//135 132//135 120//135 113//135
f 127//136 113//136 125//136 133//136
f 115//137 128//137 126//137
f 112//138 127//138 133//138 124//138
f 112//139 117//139 132//139 127//139
f 119//140 131//140 132//140 117//140
f 118//141 130//141 131//141 119//141
f 116//142 129//142 130//142 118//142
f 121//143 129//143 128//143 115//143
f 126//144 128//144 114//144
f 92//145 104//145 126//145 114//145
f 93//146 99//146 121//146 115//146
f 101//147 100//147 122//147 123//147
f 104//148 93//148 115//148 126//148
f 94//149 92//149 114//149 116//149
f 103//150 111//150 133//150 125//150
f 95//151 97//151 119//151 117//151
f 96//152 94//152 116//152 118//152
f 102//153 90//153 112//153 124//153
f 100//154 98//154 120//154 122//154
f 91//155 103//155 125//155 113//155
f 99//156 101//156 123//156 121//156
f 90//157 95//157 117//157 112//157
f 111//158 102//158 124//158 133//158
f 98//159 91//159 113//159 120//159
f 97//160 96//160 118//160 119//160
usemtl 795548
f 74//161 75//161 25//161 73//161
f 76//162 77//162 23//162 24//162
f 75//163 76//163 24//163 25//163
f 73//164 25//164 24//164 23//164
f 62//165 63//165 79//165 80//165
f 80//166 79//166 76//166 75//166
f 81//167 80//167 75//167 74//167
f 78//168 81//168 74//168 77//168
f 77//169 74//169 73//169 23//169
f 61//170 62//170 80//170 81//170
f 63//171 64//171 78//171 79//171
f 64//172 61//172 81//172 78//172
f 79//173 78//173 77//173 76//173
