# Blender v2.78 (sub 0) OBJ File: '5.blend'
# www.blender.org
mtllib Refrigerator_01.mtl
o Refrigerator_01_Cube.039
v 2.265013 6.063940 1.813240
v -2.118125 6.063940 2.167858
v -2.265013 6.063940 1.813240
v -1.763507 6.063940 2.314746
v -1.763507 0.000000 2.314746
v -2.265013 0.000000 1.813240
v -2.118125 0.000000 2.167858
v 2.265013 0.000000 1.813240
v 1.763506 0.000000 2.314746
v 2.118125 0.000000 2.167859
v 2.118125 6.021729 2.167859
v 1.763506 6.021729 2.314746
v 2.265013 6.021729 1.813240
v -2.118125 6.021729 2.167858
v -2.265013 6.021729 1.813240
v -1.763507 6.021729 2.314746
v 1.763506 6.063940 2.314746
v 2.118125 6.063940 2.167859
v 1.763506 9.073598 2.314746
v 2.265013 9.173354 1.813240
v 2.118125 9.144136 2.167859
v 1.394769 9.442336 2.314746
v 1.494525 9.943842 1.813240
v 1.465307 9.796952 2.167859
v 1.655506 9.334334 2.314746
v 2.039342 9.718171 1.813240
v 1.926918 9.605748 2.167859
v -1.394769 9.442336 2.314746
v -1.494525 9.943842 1.813240
v -1.465307 9.796952 2.167859
v -1.763507 9.073598 2.314746
v -2.265013 9.173354 1.813240
v -2.118125 9.144136 2.167858
v -1.655506 9.334334 2.314746
v -2.039342 9.718171 1.813240
v -1.926919 9.605748 2.167858
v 1.483200 4.491081 2.505901
v 1.635885 4.491081 2.505901
v 1.635885 5.845724 2.497117
v 1.483200 5.845724 2.497117
v 1.635885 5.882854 2.424643
v 1.635885 4.440690 2.424643
v 1.483200 4.440690 2.424643
v 1.483200 5.882854 2.424643
v 1.635885 5.697622 2.525976
v 1.483200 5.697622 2.525976
v 1.635885 5.697622 2.424643
v 1.483200 5.697622 2.424643
v 1.635885 4.630074 2.525976
v 1.635885 4.630074 2.424643
v 1.483200 4.630074 2.525976
v 1.483200 4.630074 2.424643
v 1.483200 5.697622 2.333383
v 1.483200 5.882854 2.333383
v 1.635885 5.882854 2.333383
v 1.635885 5.697622 2.333383
v 1.462719 5.672775 2.333383
v 1.462719 5.907702 2.333383
v 1.656366 5.907702 2.333383
v 1.656366 5.672775 2.333383
v 1.462719 5.672775 2.277463
v 1.462719 5.907702 2.277463
v 1.656366 5.907702 2.277463
v 1.656366 5.672775 2.277463
v 1.635885 7.002637 2.505901
v 1.483200 7.002637 2.505901
v 1.483200 6.188371 2.497117
v 1.635885 6.188371 2.497117
v 1.483200 6.151240 2.424643
v 1.483200 7.053028 2.424643
v 1.635885 7.053028 2.424643
v 1.635885 6.151240 2.424643
v 1.483200 6.336473 2.525976
v 1.635885 6.336473 2.525976
v 1.483200 6.336473 2.424643
v 1.635885 6.336473 2.424643
v 1.483200 6.863644 2.525976
v 1.483200 6.863644 2.424643
v 1.635885 6.863644 2.525976
v 1.635885 6.863644 2.424643
v 1.635885 6.336473 2.333383
v 1.635885 6.151240 2.333383
v 1.483200 6.151240 2.333383
v 1.483200 6.336473 2.333383
v 1.656366 6.361320 2.333383
v 1.656366 6.126393 2.333383
v 1.462718 6.126393 2.333383
v 1.462718 6.361320 2.333383
v 1.656366 6.361320 2.277463
v 1.656366 6.126393 2.277463
v 1.462718 6.126393 2.277463
v 1.462718 6.361320 2.277463
v 1.483200 6.863644 2.347236
v 1.483200 7.053028 2.347236
v 1.635885 7.053028 2.347236
v 1.635885 6.863644 2.347236
v 1.456991 6.831135 2.347236
v 1.456991 7.085536 2.347236
v 1.662093 7.085536 2.347236
v 1.662093 6.831135 2.347236
v 1.456991 6.831135 2.279374
v 1.456991 7.085536 2.279374
v 1.662093 7.085536 2.279374
v 1.662093 6.831135 2.279374
v 1.635885 4.630074 2.342799
v 1.635885 4.440690 2.342799
v 1.483200 4.440690 2.342799
v 1.483200 4.630074 2.342799
v 1.656709 4.655904 2.342799
v 1.656709 4.414860 2.342799
v 1.462376 4.414860 2.342799
v 1.462376 4.655904 2.342799
v 1.656709 4.655904 2.279701
v 1.656709 4.414860 2.279701
v 1.462376 4.414860 2.279701
v 1.462376 4.655904 2.279701
v -2.265013 0.000000 -2.265013
v -2.265013 6.063940 -2.265013
v 2.265013 0.000000 -2.265013
v 2.265013 6.063940 -2.265013
v -2.265013 9.173354 -2.265013
v -1.494525 9.943842 -2.265013
v -2.039342 9.718171 -2.265013
v 1.494525 9.943842 -2.265013
v 2.265013 9.173354 -2.265013
v 2.039342 9.718171 -2.265013
v -2.265013 0.000000 1.763506
v -2.265013 6.063940 1.763506
v 2.265013 0.000000 1.763507
v 2.265013 6.063940 1.763507
v 2.265013 9.173354 1.763507
v 1.494525 9.943842 1.763507
v 2.039342 9.718171 1.763507
v -1.494525 9.943842 1.763506
v -2.265013 9.173354 1.763506
v -2.039342 9.718171 1.763506
v -2.265013 6.021729 -2.265013
v 2.265013 6.021729 -2.265013
v 2.265013 6.021729 1.763507
v -2.265013 6.021729 1.763506
v -2.078211 6.197164 1.763506
v 2.078210 6.197164 1.763507
v 2.078210 9.050135 1.763507
v 1.371267 9.757079 1.763506
v 1.871152 9.550019 1.763507
v -1.371268 9.757079 1.763506
v -2.078211 9.050135 1.763506
v -1.871152 9.550019 1.763506
v -2.078210 6.197164 -2.069613
v 2.078211 6.197164 -2.069613
v 2.078211 9.050135 -2.069613
v 1.371268 9.757079 -2.069613
v 1.871152 9.550019 -2.069613
v -1.371267 9.757079 -2.069613
v -2.078210 9.050135 -2.069613
v -1.871152 9.550019 -2.069613
v -2.083452 0.241347 1.763506
v 2.083452 0.241347 1.763507
v 2.083452 5.780383 1.763507
v -2.083452 5.780383 1.763506
v -2.083452 0.241347 -1.991490
v 2.083452 0.241347 -1.991490
v 2.083452 5.780383 -1.991490
v -2.083452 5.780383 -1.991490
v -2.083452 1.723056 0.927698
v 2.083452 1.723056 0.927699
v -2.083452 1.723056 -1.991490
v 2.083452 1.723056 -1.991490
v -2.083452 1.821178 0.927698
v 2.083452 1.821178 0.927699
v -2.083452 1.821178 -1.991490
v 2.083452 1.821178 -1.991490
v -2.083452 3.250027 0.927698
v 2.083452 3.250027 0.927699
v -2.083452 3.250027 -1.991490
v 2.083452 3.250027 -1.991490
v -2.083452 3.348149 0.927698
v 2.083452 3.348149 0.927699
v -2.083452 3.348149 -1.991490
v 2.083452 3.348149 -1.991490
v -2.083452 4.372119 0.927698
v 2.083452 4.372119 0.927699
v -2.083452 4.372119 -1.991490
v 2.083452 4.372119 -1.991490
v -2.083452 4.470242 0.927698
v 2.083452 4.470242 0.927699
v -2.083452 4.470242 -1.991490
v 2.083452 4.470242 -1.991490
v -2.001043 1.331628 0.678878
v -0.728296 1.331628 0.678878
v -2.001043 1.331628 -1.806806
v -0.728296 1.331628 -1.806806
v -2.001043 0.277132 0.678878
v -0.728296 0.277132 0.678878
v -2.001043 0.277132 -1.806806
v -0.728296 0.277132 -1.806806
v -0.728296 1.091970 0.872467
v -2.001043 1.091970 0.872467
v -0.728296 1.091970 -1.806806
v -2.001043 1.091970 -1.806806
v -1.720824 1.331628 0.678878
v -1.008516 1.331628 0.678878
v -1.720823 1.331628 -1.806806
v -1.008516 1.331628 -1.806806
v -1.720824 0.277132 0.678878
v -1.008516 0.277132 0.678878
v -1.720823 0.277132 -1.806806
v -1.008516 0.277132 -1.806806
v -1.720823 1.091970 -1.806806
v -1.008516 1.091970 -1.806806
v -1.008516 1.091970 0.872467
v -1.720824 1.091970 0.872467
v -1.720824 1.331628 0.886394
v -1.008516 1.331628 0.886394
v -1.008516 1.091970 0.886394
v -1.720824 1.091970 0.886394
v -1.620296 1.331628 0.708165
v -1.109044 1.331628 0.708165
v -1.620296 1.331628 0.857107
v -1.109044 1.331628 0.857107
v -1.620296 1.184737 0.708165
v -1.109044 1.184737 0.708165
v -1.620296 1.184737 0.857107
v -1.109044 1.184737 0.857107
v -1.969299 1.331628 0.606069
v -0.760041 1.331628 0.606069
v -1.969298 1.331628 -1.733997
v -0.760041 1.331628 -1.733997
v -1.703057 1.331628 0.606069
v -1.026282 1.331628 0.606069
v -1.703057 1.331628 -1.733997
v -1.026282 1.331628 -1.733997
v -1.969299 0.501400 0.606069
v -0.760041 0.501400 0.606069
v -1.969298 0.501400 -1.733997
v -0.760041 0.501400 -1.733997
v -1.703057 0.501400 0.606069
v -1.026282 0.501400 0.606069
v -1.703057 0.501400 -1.733997
v -1.026282 0.501400 -1.733997
v -0.584087 1.331628 0.678878
v 0.688660 1.331628 0.678878
v -0.584087 1.331628 -1.806806
v 0.688660 1.331628 -1.806806
v -0.584087 0.277132 0.678878
v 0.688660 0.277132 0.678878
v -0.584087 0.277132 -1.806806
v 0.688660 0.277132 -1.806806
v 0.688660 1.091970 0.872467
v -0.584087 1.091970 0.872467
v 0.688660 1.091970 -1.806806
v -0.584087 1.091970 -1.806806
v -0.303867 1.331628 0.678878
v 0.408441 1.331628 0.678878
v -0.303867 1.331628 -1.806806
v 0.408441 1.331628 -1.806806
v -0.303867 0.277132 0.678878
v 0.408441 0.277132 0.678878
v -0.303867 0.277132 -1.806806
v 0.408441 0.277132 -1.806806
v -0.303867 1.091970 -1.806806
v 0.408441 1.091970 -1.806806
v 0.408441 1.091970 0.872467
v -0.303867 1.091970 0.872467
v -0.303867 1.331628 0.886394
v 0.408441 1.331628 0.886394
v 0.408441 1.091970 0.886394
v -0.303867 1.091970 0.886394
v -0.203339 1.331628 0.708165
v 0.307913 1.331628 0.708165
v -0.203339 1.331628 0.857107
v 0.307913 1.331628 0.857107
v -0.203339 1.184737 0.708165
v 0.307913 1.184737 0.708165
v -0.203339 1.184737 0.857107
v 0.307913 1.184737 0.857107
v -0.552342 1.331628 0.606069
v 0.656916 1.331628 0.606069
v -0.552342 1.331628 -1.733997
v 0.656916 1.331628 -1.733997
v -0.286101 1.331628 0.606069
v 0.390674 1.331628 0.606069
v -0.286101 1.331628 -1.733997
v 0.390674 1.331628 -1.733997
v -0.552342 0.501400 0.606069
v 0.656916 0.501400 0.606069
v -0.552342 0.501400 -1.733997
v 0.656916 0.501400 -1.733997
v -0.286101 0.501400 0.606069
v 0.390674 0.501400 0.606069
v -0.286101 0.501400 -1.733997
v 0.390674 0.501400 -1.733997
v 0.779622 1.331628 0.678878
v 2.052369 1.331628 0.678878
v 0.779622 1.331628 -1.806806
v 2.052369 1.331628 -1.806806
v 0.779622 0.277132 0.678878
v 2.052369 0.277132 0.678878
v 0.779622 0.277132 -1.806806
v 2.052369 0.277132 -1.806806
v 2.052369 1.091970 0.872467
v 0.779622 1.091970 0.872467
v 2.052369 1.091970 -1.806806
v 0.779622 1.091970 -1.806806
v 1.059842 1.331628 0.678878
v 1.772150 1.331628 0.678878
v 1.059842 1.331628 -1.806806
v 1.772150 1.331628 -1.806806
v 1.059842 0.277132 0.678878
v 1.772150 0.277132 0.678878
v 1.059842 0.277132 -1.806806
v 1.772150 0.277132 -1.806806
v 1.059842 1.091970 -1.806806
v 1.772150 1.091970 -1.806806
v 1.772150 1.091970 0.872467
v 1.059842 1.091970 0.872467
v 1.059842 1.331628 0.886394
v 1.772150 1.331628 0.886394
v 1.772150 1.091970 0.886394
v 1.059842 1.091970 0.886394
v 1.160370 1.331628 0.708165
v 1.671622 1.331628 0.708165
v 1.160370 1.331628 0.857108
v 1.671622 1.331628 0.857108
v 1.160370 1.184737 0.708165
v 1.671622 1.184737 0.708165
v 1.160370 1.184737 0.857108
v 1.671622 1.184737 0.857108
v 0.811367 1.331628 0.606069
v 2.020625 1.331628 0.606069
v 0.811367 1.331628 -1.733997
v 2.020625 1.331628 -1.733997
v 1.077608 1.331628 0.606069
v 1.754383 1.331628 0.606069
v 1.077608 1.331628 -1.733997
v 1.754384 1.331628 -1.733997
v 0.811367 0.501400 0.606069
v 2.020625 0.501400 0.606069
v 0.811367 0.501400 -1.733997
v 2.020625 0.501400 -1.733997
v 1.077608 0.501400 0.606069
v 1.754383 0.501400 0.606069
v 1.077608 0.501400 -1.733997
v 1.754384 0.501400 -1.733997
v -2.091313 7.164918 0.927698
v 2.091313 7.164918 0.927699
v -2.091313 7.164918 -1.991490
v 2.091313 7.164918 -1.991490
v -2.091313 7.263040 0.927698
v 2.091313 7.263040 0.927699
v -2.091313 7.263040 -1.991490
v 2.091313 7.263040 -1.991490
vn 0.8536 0.3536 0.3827
vn 0.3536 0.1464 0.9239
vn 0.3536 0.8536 0.3827
vn 0.1464 0.3536 0.9239
vn 0.0000 -1.0000 0.0000
vn 0.0000 1.0000 -0.0000
vn -0.0000 -0.0000 1.0000
vn 0.3827 0.0000 0.9239
vn 0.9239 0.0000 0.3827
vn -0.9239 0.0000 0.3827
vn -0.3827 0.0000 0.9239
vn -0.1464 0.3536 0.9239
vn -0.3536 0.8536 0.3827
vn -0.3536 0.1464 0.9239
vn -0.8536 0.3536 0.3827
vn 0.0000 0.3827 0.9239
vn 0.0000 0.9239 0.3827
vn 0.0000 0.0000 -1.0000
vn 1.0000 0.0000 0.0000
vn -1.0000 0.0000 -0.0000
vn 0.3827 0.9239 -0.0000
vn 0.9239 0.3827 0.0000
vn -0.3827 0.9239 -0.0000
vn -0.9239 0.3827 -0.0000
vn 0.0000 0.1913 0.9815
vn 0.0000 0.8900 0.4560
vn 0.0000 -0.8499 0.5270
vn 0.0000 -0.1429 0.9897
vn -0.0000 -0.1913 0.9815
vn 0.0000 -0.8900 0.4560
vn 0.0000 0.8499 0.5270
vn -0.0000 0.1429 0.9897
vn 0.9239 -0.3827 0.0000
vn -0.9239 -0.3827 -0.0000
vn 0.3827 -0.9239 0.0000
vn -0.3827 -0.9239 0.0000
vn 0.0000 -0.2311 0.9729
vn -0.0000 0.6284 0.7779
usemtl FFFFFF
s off
f 27//1 21//1 20//1 26//1
f 25//2 19//2 21//2 27//2
f 24//3 27//3 26//3 23//3
f 22//4 25//4 27//4 24//4
f 10//5 9//5 5//5 7//5
f 7//5 6//5 8//5 10//5
f 15//6 14//6 11//6 13//6
f 14//6 16//6 12//6 11//6
f 2//5 18//5 17//5 4//5
f 18//5 2//5 3//5 1//5
f 4//7 17//7 19//7 25//7 22//7 28//7 34//7 31//7
f 12//8 9//8 10//8 11//8
f 11//9 10//9 8//9 13//9
f 15//10 6//10 7//10 14//10
f 14//11 7//11 5//11 16//11
f 9//7 12//7 16//7 5//7
f 34//12 28//12 30//12 36//12
f 36//13 30//13 29//13 35//13
f 31//14 34//14 36//14 33//14
f 33//15 36//15 35//15 32//15
f 28//16 22//16 24//16 30//16
f 30//17 24//17 23//17 29//17
f 4//11 31//11 33//11 2//11
f 2//10 33//10 32//10 3//10
f 19//8 17//8 18//8 21//8
f 21//9 18//9 1//9 20//9
f 117//18 137//18 138//18 119//18
f 130//19 120//19 125//19 131//19
f 127//20 140//20 137//20 117//20
f 119//5 129//5 127//5 117//5
f 118//20 128//20 135//20 121//20
f 119//19 138//19 139//19 129//19
f 124//21 132//21 133//21 126//21
f 126//22 133//22 131//22 125//22
f 134//23 122//23 123//23 136//23
f 132//6 124//6 122//6 134//6
f 136//24 123//24 121//24 135//24
f 120//18 118//18 121//18 123//18 122//18 124//18 126//18 125//18
f 139//7 130//7 128//7 140//7
f 138//19 120//19 130//19 139//19
f 130//7 131//7 143//7 142//7
f 136//7 135//7 147//7 148//7
f 131//7 133//7 145//7 143//7
f 128//7 130//7 142//7 141//7
f 135//7 128//7 141//7 147//7
f 132//7 134//7 146//7 144//7
f 134//7 136//7 148//7 146//7
f 133//7 132//7 144//7 145//7
f 139//7 140//7 160//7 159//7
f 140//7 127//7 157//7 160//7
f 129//7 139//7 159//7 158//7
f 127//7 129//7 158//7 157//7
f 140//20 128//20 118//20 137//20
f 137//18 118//18 120//18 138//18
usemtl 455A64
f 45//25 39//25 40//25 46//25
f 44//20 54//20 53//20 48//20
f 39//26 41//26 44//26 40//26
f 51//20 52//20 43//20 37//20
f 37//27 43//27 42//27 38//27
f 45//19 47//19 41//19 39//19
f 49//19 50//19 47//19 45//19
f 40//20 44//20 48//20 46//20
f 50//18 52//18 48//18 47//18
f 49//7 45//7 46//7 51//7
f 38//28 49//28 51//28 37//28
f 50//6 105//6 108//6 52//6
f 38//19 42//19 50//19 49//19
f 46//20 48//20 52//20 51//20
f 56//7 60//7 59//7 55//7
f 47//19 56//19 55//19 41//19
f 41//6 55//6 54//6 44//6
f 48//5 53//5 56//5 47//5
f 60//19 64//19 63//19 59//19
f 54//7 58//7 57//7 53//7
f 53//7 57//7 60//7 56//7
f 55//7 59//7 58//7 54//7
f 73//29 67//29 68//29 74//29
f 58//20 62//20 61//20 57//20
f 57//5 61//5 64//5 60//5
f 59//6 63//6 62//6 58//6
f 72//19 82//19 81//19 76//19
f 67//30 69//30 72//30 68//30
f 79//19 80//19 71//19 65//19
f 65//31 71//31 70//31 66//31
f 73//20 75//20 69//20 67//20
f 77//20 78//20 75//20 73//20
f 68//19 72//19 76//19 74//19
f 78//18 80//18 76//18 75//18
f 77//7 73//7 74//7 79//7
f 66//32 77//32 79//32 65//32
f 71//6 95//6 94//6 70//6
f 66//20 70//20 78//20 77//20
f 74//19 76//19 80//19 79//19
f 84//7 88//7 87//7 83//7
f 75//20 84//20 83//20 69//20
f 69//5 83//5 82//5 72//5
f 76//6 81//6 84//6 75//6
f 88//20 92//20 91//20 87//20
f 82//7 86//7 85//7 81//7
f 81//7 85//7 88//7 84//7
f 83//7 87//7 86//7 82//7
f 86//19 90//19 89//19 85//19
f 85//6 89//6 92//6 88//6
f 87//5 91//5 90//5 86//5
f 94//7 98//7 97//7 93//7
f 70//20 94//20 93//20 78//20
f 78//5 93//5 96//5 80//5
f 80//19 96//19 95//19 71//19
f 97//5 101//5 104//5 100//5
f 93//7 97//7 100//7 96//7
f 95//7 99//7 98//7 94//7
f 96//7 100//7 99//7 95//7
f 99//6 103//6 102//6 98//6
f 100//19 104//19 103//19 99//19
f 98//20 102//20 101//20 97//20
f 105//7 109//7 112//7 108//7
f 52//20 108//20 107//20 43//20
f 43//5 107//5 106//5 42//5
f 42//19 106//19 105//19 50//19
f 111//5 115//5 114//5 110//5
f 107//7 111//7 110//7 106//7
f 108//7 112//7 111//7 107//7
f 106//7 110//7 109//7 105//7
f 114//18 115//18 116//18 113//18
f 112//20 116//20 115//20 111//20
f 110//19 114//19 113//19 109//19
f 109//6 113//6 116//6 112//6
usemtl 039BE5
f 6//18 15//18 13//18 8//18
f 3//18 32//18 20//18 1//18
f 32//18 35//18 26//18 20//18
f 26//18 35//18 29//18 23//18
f 141//6 142//6 150//6 149//6
f 147//19 141//19 149//19 155//19
f 148//33 147//33 155//33 156//33
f 143//34 145//34 153//34 151//34
f 142//20 143//20 151//20 150//20
f 144//5 146//5 154//5 152//5
f 146//35 148//35 156//35 154//35
f 145//36 144//36 152//36 153//36
f 159//5 160//5 164//5 163//5
f 160//19 157//19 161//19 164//19
f 157//6 158//6 162//6 161//6
f 158//20 159//20 163//20 162//20
f 162//7 163//7 164//7 161//7
f 155//7 149//7 150//7 151//7
f 151//7 153//7 156//7 155//7
f 153//7 152//7 154//7 156//7
f 165//5 167//5 168//5 166//5
f 169//6 170//6 172//6 171//6
f 166//19 168//19 172//19 170//19
f 168//18 167//18 171//18 172//18
f 167//20 165//20 169//20 171//20
f 165//7 166//7 170//7 169//7
f 173//5 175//5 176//5 174//5
f 177//6 178//6 180//6 179//6
f 174//19 176//19 180//19 178//19
f 176//18 175//18 179//18 180//18
f 175//20 173//20 177//20 179//20
f 173//7 174//7 178//7 177//7
f 181//5 183//5 184//5 182//5
f 185//6 186//6 188//6 187//6
f 182//19 184//19 188//19 186//19
f 184//18 183//18 187//18 188//18
f 183//20 181//20 185//20 187//20
f 181//7 182//7 186//7 185//7
f 201//6 229//6 225//6 189//6
f 206//5 208//5 196//5 194//5
f 211//37 206//37 194//37 197//37
f 197//19 194//19 196//19 199//19
f 209//18 207//18 195//18 200//18
f 200//20 195//20 193//20 198//20
f 191//20 200//20 198//20 189//20
f 203//18 209//18 200//18 191//18
f 190//19 197//19 199//19 192//19
f 202//38 211//38 197//38 190//38
f 189//38 198//38 212//38 201//38
f 202//19 214//19 215//19 211//19
f 192//18 199//18 210//18 204//18
f 204//18 210//18 209//18 203//18
f 199//18 196//18 208//18 210//18
f 210//18 208//18 207//18 209//18
f 198//37 193//37 205//37 212//37
f 212//37 205//37 206//37 211//37
f 193//5 195//5 207//5 205//5
f 205//5 207//5 208//5 206//5
f 190//6 226//6 230//6 202//6
f 191//6 227//6 231//6 203//6
f 213//7 216//7 215//7 214//7
f 211//5 215//5 216//5 212//5
f 214//6 220//6 219//6 213//6
f 212//20 216//20 213//20 201//20
f 219//19 223//19 221//19 217//19
f 213//6 219//6 217//6 201//6
f 202//6 218//6 220//6 214//6
f 201//6 217//6 218//6 202//6
f 221//6 223//6 224//6 222//6
f 220//18 224//18 223//18 219//18
f 218//20 222//20 224//20 220//20
f 217//7 221//7 222//7 218//7
f 192//6 228//6 226//6 190//6
f 203//6 231//6 232//6 204//6
f 204//6 232//6 228//6 192//6
f 202//6 230//6 229//6 201//6
f 189//6 225//6 227//6 191//6
f 232//7 240//7 236//7 228//7
f 231//7 239//7 240//7 232//7
f 230//18 238//18 237//18 229//18
f 228//20 236//20 234//20 226//20
f 226//18 234//18 238//18 230//18
f 227//7 235//7 239//7 231//7
f 229//18 237//18 233//18 225//18
f 225//19 233//19 235//19 227//19
f 236//6 240//6 238//6 234//6
f 238//6 240//6 239//6 237//6
f 235//6 233//6 237//6 239//6
f 253//6 281//6 277//6 241//6
f 258//5 260//5 248//5 246//5
f 263//37 258//37 246//37 249//37
f 249//19 246//19 248//19 251//19
f 261//18 259//18 247//18 252//18
f 252//20 247//20 245//20 250//20
f 243//20 252//20 250//20 241//20
f 255//18 261//18 252//18 243//18
f 242//19 249//19 251//19 244//19
f 254//38 263//38 249//38 242//38
f 241//38 250//38 264//38 253//38
f 254//19 266//19 267//19 263//19
f 244//18 251//18 262//18 256//18
f 256//18 262//18 261//18 255//18
f 251//18 248//18 260//18 262//18
f 262//18 260//18 259//18 261//18
f 250//37 245//37 257//37 264//37
f 264//37 257//37 258//37 263//37
f 245//5 247//5 259//5 257//5
f 257//5 259//5 260//5 258//5
f 242//6 278//6 282//6 254//6
f 243//6 279//6 283//6 255//6
f 265//7 268//7 267//7 266//7
f 263//5 267//5 268//5 264//5
f 266//6 272//6 271//6 265//6
f 264//20 268//20 265//20 253//20
f 271//19 275//19 273//19 269//19
f 265//6 271//6 269//6 253//6
f 254//6 270//6 272//6 266//6
f 253//6 269//6 270//6 254//6
f 273//6 275//6 276//6 274//6
f 272//18 276//18 275//18 271//18
f 270//20 274//20 276//20 272//20
f 269//7 273//7 274//7 270//7
f 244//6 280//6 278//6 242//6
f 255//6 283//6 284//6 256//6
f 256//6 284//6 280//6 244//6
f 254//6 282//6 281//6 253//6
f 241//6 277//6 279//6 243//6
f 284//7 292//7 288//7 280//7
f 283//7 291//7 292//7 284//7
f 282//18 290//18 289//18 281//18
f 280//20 288//20 286//20 278//20
f 278//18 286//18 290//18 282//18
f 279//7 287//7 291//7 283//7
f 281//18 289//18 285//18 277//18
f 277//19 285//19 287//19 279//19
f 288//6 292//6 290//6 286//6
f 290//6 292//6 291//6 289//6
f 287//6 285//6 289//6 291//6
f 305//6 333//6 329//6 293//6
f 310//5 312//5 300//5 298//5
f 315//37 310//37 298//37 301//37
f 301//19 298//19 300//19 303//19
f 313//18 311//18 299//18 304//18
f 304//20 299//20 297//20 302//20
f 295//20 304//20 302//20 293//20
f 307//18 313//18 304//18 295//18
f 294//19 301//19 303//19 296//19
f 306//38 315//38 301//38 294//38
f 293//38 302//38 316//38 305//38
f 306//19 318//19 319//19 315//19
f 296//18 303//18 314//18 308//18
f 308//18 314//18 313//18 307//18
f 303//18 300//18 312//18 314//18
f 314//18 312//18 311//18 313//18
f 302//37 297//37 309//37 316//37
f 316//37 309//37 310//37 315//37
f 297//5 299//5 311//5 309//5
f 309//5 311//5 312//5 310//5
f 294//6 330//6 334//6 306//6
f 295//6 331//6 335//6 307//6
f 317//7 320//7 319//7 318//7
f 315//5 319//5 320//5 316//5
f 318//6 324//6 323//6 317//6
f 316//20 320//20 317//20 305//20
f 323//19 327//19 325//19 321//19
f 317//6 323//6 321//6 305//6
f 306//6 322//6 324//6 318//6
f 305//6 321//6 322//6 306//6
f 325//6 327//6 328//6 326//6
f 324//18 328//18 327//18 323//18
f 322//20 326//20 328//20 324//20
f 321//7 325//7 326//7 322//7
f 296//6 332//6 330//6 294//6
f 307//6 335//6 336//6 308//6
f 308//6 336//6 332//6 296//6
f 306//6 334//6 333//6 305//6
f 293//6 329//6 331//6 295//6
f 336//7 344//7 340//7 332//7
f 335//7 343//7 344//7 336//7
f 334//18 342//18 341//18 333//18
f 332//20 340//20 338//20 330//20
f 330//18 338//18 342//18 334//18
f 331//7 339//7 343//7 335//7
f 333//18 341//18 337//18 329//18
f 329//19 337//19 339//19 331//19
f 340//6 344//6 342//6 338//6
f 342//6 344//6 343//6 341//6
f 339//6 337//6 341//6 343//6
f 345//5 347//5 348//5 346//5
f 349//6 350//6 352//6 351//6
f 346//19 348//19 352//19 350//19
f 348//18 347//18 351//18 352//18
f 347//20 345//20 349//20 351//20
f 345//7 346//7 350//7 349//7
