# Blender v2.78 (sub 0) OBJ File: '5.blend'
# www.blender.org
mtllib Microwave_01.mtl
o Microwave_01_Cube.040
v -8.567704 -0.034184 -6.273609
v -8.567704 10.018134 -6.273609
v 9.365002 -0.034184 -6.273608
v 9.365002 10.018134 -6.273608
v 5.287067 9.474447 -5.827150
v 5.287067 0.509502 -5.827150
v 9.365002 -0.034184 5.510127
v 9.365002 10.018134 5.510127
v 6.079258 -0.034184 -6.273608
v 6.079258 10.018134 -6.273608
v 6.079257 -0.034184 5.510127
v 6.079257 10.018134 5.510127
v 5.287066 0.509502 3.768445
v 5.287066 9.474447 3.768445
v -7.775512 9.474447 3.768445
v -7.775512 0.509502 3.768444
v 9.365002 -0.034184 3.768446
v 9.365002 10.018134 3.768445
v -8.567704 -0.034184 3.768444
v -8.567704 10.018134 3.768445
v 6.079258 10.018134 3.768445
v 6.079258 -0.034184 3.768445
v -8.571791 -0.034184 5.523992
v -8.571791 10.018134 5.523992
v 5.982723 -0.034184 5.523993
v 5.982723 10.018134 5.523993
v 4.232039 8.808994 5.523992
v -6.821106 8.808994 5.523992
v -6.821106 1.174955 5.523992
v 4.232039 1.174955 5.523992
v -8.571791 -0.034184 3.782309
v -8.571791 10.018134 3.782310
v 5.982724 10.018134 3.782310
v 5.982724 -0.034184 3.782310
v -7.775512 9.474447 -5.827150
v -7.775512 0.509502 -5.827150
v -1.244222 4.991975 -5.827150
v -8.567704 7.521846 -6.273609
v 9.365002 7.521846 -6.273608
v 9.365002 7.521846 5.510127
v -7.775512 7.108905 -5.827150
v 6.079257 7.521846 5.510127
v 6.079258 7.521846 -6.273608
v -7.775512 7.108905 3.768445
v 5.287066 7.108905 3.768445
v 6.079258 7.521846 3.768445
v -8.567704 7.521846 3.768445
v 9.365002 7.521846 3.768445
v 5.287067 7.108905 -5.827150
v 8.977808 9.485582 5.510127
v 6.466451 9.485582 5.510127
v 8.977808 8.054396 5.510127
v 6.466451 8.054396 5.510127
v 8.977808 9.485582 5.310196
v 6.466452 9.485582 5.310196
v 8.977808 8.054396 5.310196
v 6.466452 8.054396 5.310196
v 4.232040 8.808994 5.136831
v -6.821105 8.808994 5.136831
v -6.821105 1.174955 5.136831
v 4.232040 1.174955 5.136831
v 7.198627 7.137908 5.281148
v 6.492584 7.137908 5.281148
v 7.198627 6.735544 5.281148
v 6.492584 6.735544 5.281148
v 8.119884 7.137908 5.281148
v 7.413840 7.137908 5.281148
v 8.119884 6.735544 5.281148
v 7.413840 6.735544 5.281148
v 9.001085 7.137908 5.281148
v 8.295042 7.137908 5.281148
v 9.001085 6.735544 5.281148
v 8.295042 6.735544 5.281148
v 7.198627 6.537088 5.281148
v 6.492584 6.537088 5.281148
v 7.198627 6.134724 5.281148
v 6.492584 6.134724 5.281148
v 8.119884 6.537088 5.281148
v 7.413840 6.537088 5.281148
v 8.119884 6.134724 5.281148
v 7.413840 6.134724 5.281148
v 9.001085 6.537088 5.281148
v 8.295042 6.537088 5.281148
v 9.001085 6.134724 5.281148
v 8.295042 6.134724 5.281148
v 7.198627 5.956295 5.281148
v 6.492584 5.956295 5.281148
v 7.198627 5.553931 5.281148
v 6.492584 5.553931 5.281148
v 8.119884 5.956295 5.281148
v 7.413840 5.956295 5.281148
v 8.119884 5.553931 5.281148
v 7.413840 5.553931 5.281148
v 9.001085 5.956295 5.281148
v 8.295042 5.956295 5.281148
v 9.001085 5.553931 5.281148
v 8.295042 5.553931 5.281148
v 7.198627 4.734629 5.281148
v 6.492584 4.734629 5.281148
v 7.198627 4.332264 5.281148
v 6.492584 4.332264 5.281148
v 8.119884 4.734629 5.281148
v 7.413840 4.734629 5.281148
v 8.119884 4.332264 5.281148
v 7.413840 4.332264 5.281148
v 9.001085 4.734629 5.281148
v 8.295042 4.734629 5.281148
v 9.001085 4.332264 5.281148
v 8.295042 4.332264 5.281148
v 7.198627 4.093754 5.281148
v 6.492584 4.093754 5.281148
v 7.198627 3.691390 5.281148
v 6.492584 3.691390 5.281148
v 8.119884 4.093754 5.281148
v 7.413840 4.093754 5.281148
v 8.119884 3.691390 5.281148
v 7.413840 3.691390 5.281148
v 9.001085 4.093754 5.281148
v 8.295042 4.093754 5.281148
v 9.001085 3.691390 5.281148
v 8.295042 3.691390 5.281148
v 7.198627 7.137908 5.623606
v 6.492583 7.137908 5.623606
v 7.198627 6.735544 5.623606
v 6.492583 6.735544 5.623606
v 8.119884 7.137908 5.623606
v 7.413840 7.137908 5.623606
v 8.119884 6.735544 5.623606
v 7.413840 6.735544 5.623606
v 9.001085 7.137908 5.623606
v 8.295042 7.137908 5.623606
v 9.001085 6.735544 5.623606
v 8.295042 6.735544 5.623606
v 7.198627 6.537088 5.623606
v 6.492583 6.537088 5.623606
v 7.198627 6.134724 5.623606
v 6.492583 6.134724 5.623606
v 8.119884 6.537088 5.623606
v 7.413840 6.537088 5.623606
v 8.119884 6.134724 5.623606
v 7.413840 6.134724 5.623606
v 9.001085 6.537088 5.623606
v 8.295042 6.537088 5.623606
v 9.001085 6.134724 5.623606
v 8.295042 6.134724 5.623606
v 7.198627 5.956295 5.623606
v 6.492583 5.956295 5.623606
v 7.198627 5.553931 5.623606
v 6.492583 5.553931 5.623606
v 8.119884 5.956295 5.623606
v 7.413840 5.956295 5.623606
v 8.119884 5.553931 5.623606
v 7.413840 5.553931 5.623606
v 9.001085 5.956295 5.623606
v 8.295042 5.956295 5.623606
v 9.001085 5.553931 5.623606
v 8.295042 5.553931 5.623606
v 7.198627 4.734629 5.623606
v 6.492583 4.734629 5.623606
v 7.198627 4.332264 5.623606
v 6.492583 4.332264 5.623606
v 8.119884 4.734629 5.623606
v 7.413840 4.734629 5.623606
v 8.119884 4.332264 5.623606
v 7.413840 4.332264 5.623606
v 9.001085 4.734629 5.623606
v 8.295042 4.734629 5.623606
v 9.001085 4.332264 5.623606
v 8.295042 4.332264 5.623606
v 7.198627 4.093754 5.623606
v 6.492583 4.093754 5.623606
v 7.198627 3.691390 5.623606
v 6.492583 3.691390 5.623606
v 8.119884 4.093754 5.623606
v 7.413840 4.093754 5.623606
v 8.119884 3.691390 5.623606
v 7.413840 3.691390 5.623606
v 9.001085 4.093754 5.623606
v 8.295042 4.093754 5.623606
v 9.001085 3.691390 5.623606
v 8.295042 3.691390 5.623606
v 8.977808 1.537200 4.987250
v 6.466452 1.537200 4.987250
v 8.977808 0.106013 4.987250
v 6.466452 0.106013 4.987250
v 8.977808 1.537200 5.614010
v 6.466451 1.537200 5.614010
v 8.977808 0.106013 5.614010
v 6.466451 0.106013 5.614010
vn 0.0000 0.0000 -1.0000
vn -1.0000 0.0000 -0.0000
vn 0.0000 0.0000 1.0000
vn 0.0000 1.0000 0.0000
vn 0.0000 -1.0000 -0.0000
vn 1.0000 -0.0000 0.0000
usemtl FFFFFF
s off
f 43//1 10//1 4//1 39//1
f 45//2 14//2 5//2 49//2
f 47//2 20//2 2//2 38//2
f 21//3 20//3 15//3 14//3
f 21//4 10//4 2//4 20//4
f 18//4 4//4 10//4 21//4
f 38//1 2//1 10//1 43//1
f 47//3 19//3 16//3 44//3
f 46//3 21//3 14//3 45//3
f 19//3 22//3 13//3 16//3
f 3//5 17//5 22//5 9//5
f 34//1 31//1 32//1 33//1
f 9//5 22//5 19//5 1//5
f 34//6 33//6 26//6 25//6
f 39//6 4//6 18//6 48//6
f 26//3 24//3 28//3 27//3
f 34//5 25//5 23//5 31//5
f 30//2 27//2 58//2 61//2
f 24//3 23//3 29//3 28//3
f 25//3 26//3 27//3 30//3
f 23//3 25//3 30//3 29//3
f 26//4 33//4 32//4 24//4
f 23//2 24//2 32//2 31//2
f 16//4 13//4 6//4 36//4
f 14//5 15//5 35//5 5//5
f 44//6 16//6 36//6 41//6
f 5//3 35//3 37//3
f 6//3 49//3 5//3 37//3
f 36//3 6//3 37//3
f 35//3 41//3 36//3 37//3
f 15//6 44//6 41//6 35//6
f 3//6 39//6 48//6 17//6
f 22//3 46//3 45//3 13//3
f 20//3 47//3 44//3 15//3
f 1//1 38//1 43//1 9//1
f 19//2 47//2 38//2 1//2
f 13//2 45//2 49//2 6//2
f 9//1 43//1 39//1 3//1
f 51//6 53//6 57//6 55//6
f 50//5 51//5 55//5 54//5
f 53//4 52//4 56//4 57//4
f 52//2 50//2 54//2 56//2
f 28//6 29//6 60//6 59//6
f 29//4 30//4 61//4 60//4
f 27//5 28//5 59//5 58//5
usemtl 1A1A1A
f 48//6 18//6 8//6 40//6
f 17//5 7//5 11//5 22//5
f 42//3 40//3 52//3 53//3
f 46//2 22//2 11//2 42//2
f 8//4 18//4 21//4 12//4
f 21//2 46//2 42//2 12//2
f 7//3 40//3 42//3 11//3
f 17//6 48//6 40//6 7//6
f 12//3 42//3 53//3 51//3
f 8//3 12//3 51//3 50//3
f 40//3 8//3 50//3 52//3
f 56//3 54//3 55//3 57//3
f 61//3 58//3 59//3 60//3
f 64//1 65//1 63//1 62//1
f 68//1 69//1 67//1 66//1
f 72//1 73//1 71//1 70//1
f 76//1 77//1 75//1 74//1
f 80//1 81//1 79//1 78//1
f 84//1 85//1 83//1 82//1
f 88//1 89//1 87//1 86//1
f 92//1 93//1 91//1 90//1
f 96//1 97//1 95//1 94//1
f 100//1 101//1 99//1 98//1
f 104//1 105//1 103//1 102//1
f 108//1 109//1 107//1 106//1
f 112//1 113//1 111//1 110//1
f 116//1 117//1 115//1 114//1
f 120//1 121//1 119//1 118//1
f 124//3 122//3 123//3 125//3
f 128//3 126//3 127//3 129//3
f 132//3 130//3 131//3 133//3
f 136//3 134//3 135//3 137//3
f 140//3 138//3 139//3 141//3
f 144//3 142//3 143//3 145//3
f 148//3 146//3 147//3 149//3
f 152//3 150//3 151//3 153//3
f 156//3 154//3 155//3 157//3
f 160//3 158//3 159//3 161//3
f 164//3 162//3 163//3 165//3
f 168//3 166//3 167//3 169//3
f 172//3 170//3 171//3 173//3
f 176//3 174//3 175//3 177//3
f 180//3 178//3 179//3 181//3
f 109//5 108//5 168//5 169//5
f 84//6 82//6 142//6 144//6
f 110//4 111//4 171//4 170//4
f 83//2 85//2 145//2 143//2
f 112//6 110//6 170//6 172//6
f 85//5 84//5 144//5 145//5
f 111//2 113//2 173//2 171//2
f 86//4 87//4 147//4 146//4
f 113//5 112//5 172//5 173//5
f 88//6 86//6 146//6 148//6
f 114//4 115//4 175//4 174//4
f 87//2 89//2 149//2 147//2
f 62//4 63//4 123//4 122//4
f 116//6 114//6 174//6 176//6
f 89//5 88//5 148//5 149//5
f 64//6 62//6 122//6 124//6
f 115//2 117//2 177//2 175//2
f 90//4 91//4 151//4 150//4
f 63//2 65//2 125//2 123//2
f 117//5 116//5 176//5 177//5
f 92//6 90//6 150//6 152//6
f 65//5 64//5 124//5 125//5
f 118//4 119//4 179//4 178//4
f 91//2 93//2 153//2 151//2
f 66//4 67//4 127//4 126//4
f 120//6 118//6 178//6 180//6
f 93//5 92//5 152//5 153//5
f 68//6 66//6 126//6 128//6
f 119//2 121//2 181//2 179//2
f 94//4 95//4 155//4 154//4
f 67//2 69//2 129//2 127//2
f 121//5 120//5 180//5 181//5
f 96//6 94//6 154//6 156//6
f 69//5 68//5 128//5 129//5
f 95//2 97//2 157//2 155//2
f 70//4 71//4 131//4 130//4
f 97//5 96//5 156//5 157//5
f 72//6 70//6 130//6 132//6
f 98//4 99//4 159//4 158//4
f 71//2 73//2 133//2 131//2
f 100//6 98//6 158//6 160//6
f 73//5 72//5 132//5 133//5
f 99//2 101//2 161//2 159//2
f 74//4 75//4 135//4 134//4
f 101//5 100//5 160//5 161//5
f 76//6 74//6 134//6 136//6
f 102//4 103//4 163//4 162//4
f 75//2 77//2 137//2 135//2
f 104//6 102//6 162//6 164//6
f 77//5 76//5 136//5 137//5
f 103//2 105//2 165//2 163//2
f 78//4 79//4 139//4 138//4
f 105//5 104//5 164//5 165//5
f 80//6 78//6 138//6 140//6
f 106//4 107//4 167//4 166//4
f 79//2 81//2 141//2 139//2
f 108//6 106//6 166//6 168//6
f 81//5 80//5 140//5 141//5
f 107//2 109//2 169//2 167//2
f 82//4 83//4 143//4 142//4
f 184//1 185//1 183//1 182//1
f 188//3 186//3 187//3 189//3
f 183//2 185//2 189//2 187//2
f 182//4 183//4 187//4 186//4
f 185//5 184//5 188//5 189//5
f 184//6 182//6 186//6 188//6
